<svg width="46" height="46" viewBox="0 0 46 46" fill="none" xmlns="http://www.w3.org/2000/svg">
<path d="M23 0C10.2974 0 0 10.2974 0 23.0001C0 27.8074 1.47577 32.2696 3.99778 35.9602L0.976691 45.0233L10.0399 42.0023C13.7305 44.5242 18.1926 46 23 46C35.7026 46 46 35.7026 46 23.0001C46 10.2974 35.7026 0 23 0Z" fill="black"/>
<path d="M33.7582 29.8775C32.0219 28.1412 30.1621 26.6796 30.1621 26.6796L27.4526 29.3892L16.6109 18.5474L19.3205 15.8379C19.3205 15.8379 17.8589 13.9781 16.1226 12.2418C14.3863 10.5055 12.5266 9.04387 12.5266 9.04387C12.5266 9.04387 9.27993 12.0306 9.06161 14.3995C8.76943 17.5703 12.1258 23.3352 17.3953 28.6047C22.6648 33.8743 28.4297 37.2306 31.6005 36.9384C33.9694 36.72 36.9561 33.4735 36.9561 33.4735C36.9561 33.4735 35.4944 31.6139 33.7582 29.8775Z" fill="#FED514"/>
</svg>
