<svg width="111" height="42" viewBox="0 0 111 42" fill="none" xmlns="http://www.w3.org/2000/svg">
<path d="M99.9082 18.0469C99.9082 17.1408 99.1613 16.4062 98.2399 16.4062H81.0564C80.135 16.4062 79.3881 17.1408 79.3881 18.0469C79.3881 18.953 80.135 19.6875 81.0564 19.6875H98.2399C99.1613 19.6875 99.9082 18.953 99.9082 18.0469Z" fill="black"/>
<path d="M81.0564 22.9688C80.135 22.9688 79.3881 23.7033 79.3881 24.6094C79.3881 25.5155 80.135 26.25 81.0564 26.25H91.4925C92.4139 26.25 93.1608 25.5155 93.1608 24.6094C93.1608 23.7033 92.4139 22.9688 91.4925 22.9688H81.0564Z" fill="black"/>
<path d="M84.9769 38.7188H79.3973C77.5575 38.7188 76.0607 37.2468 76.0607 35.4375V6.5625C76.0607 4.75322 77.5575 3.28125 79.3973 3.28125H99.9082C101.748 3.28125 103.245 4.75322 103.245 6.5625V16.6523C103.245 17.5585 103.992 18.293 104.913 18.293C105.834 18.293 106.581 17.5585 106.581 16.6523V6.5625C106.581 2.94394 103.588 0 99.9082 0H79.3973C75.7177 0 72.7241 2.94394 72.7241 6.5625V35.4375C72.7241 39.0561 75.7177 42 79.3973 42H84.9769C85.8983 42 86.6452 41.2655 86.6452 40.3594C86.6452 39.4533 85.8983 38.7188 84.9769 38.7188Z" fill="black"/>
<path d="M109.536 23.754C107.585 21.8349 104.41 21.8348 102.46 23.7526L93.3005 32.74C93.106 32.9309 92.9625 33.166 92.8826 33.4245L90.8879 39.8825C90.711 40.455 90.8651 41.0767 91.29 41.505C91.6083 41.8259 92.0407 42 92.4843 42C92.6327 42 92.7825 41.9805 92.9295 41.9404L99.6632 40.1061C99.9403 40.0306 100.193 39.886 100.396 39.6862L109.536 30.7146C111.488 28.7956 111.488 25.6732 109.536 23.754ZM98.3498 37.0591L94.9621 37.982L95.9535 34.7722L102.134 28.708L104.493 31.0287L98.3498 37.0591ZM107.178 28.3935L106.855 28.7107L104.496 26.3904L104.818 26.0743C105.468 25.4346 106.527 25.4346 107.177 26.0743C107.828 26.714 107.828 27.7548 107.178 28.3935Z" fill="black"/>
<path d="M98.2399 9.84375H81.0564C80.135 9.84375 79.3881 10.5783 79.3881 11.4844C79.3881 12.3905 80.135 13.125 81.0564 13.125H98.2399C99.1613 13.125 99.9082 12.3905 99.9082 11.4844C99.9082 10.5783 99.1613 9.84375 98.2399 9.84375Z" fill="black"/>
<path d="M96.5172 34.186L95.4828 37.6046L99.1034 36.6279L105.31 30.7674L102.724 28.3256L96.5172 34.186Z" fill="#FED514" stroke="#FED514"/>
<ellipse cx="27.2715" cy="23.8378" rx="14.2286" ry="13.6216" fill="#FED514"/>
<ellipse cx="47.4288" cy="14.7568" rx="2.37144" ry="2.27027" fill="#FED514"/>
<ellipse cx="27.2715" cy="23.8378" rx="8.30004" ry="7.94595" fill="#0B0B0B"/>
<path d="M27.2716 15.75C22.7527 15.75 19.0901 19.277 19.0901 23.625C19.0901 27.9746 22.7527 31.5 27.2716 31.5C31.7894 31.5 35.453 27.9746 35.453 23.625C35.453 19.277 31.7894 15.75 27.2716 15.75ZM49.0888 7.875H42.5436C41.6437 7.875 40.6739 7.203 40.3897 6.38085L38.6978 1.49363C38.4125 0.672 37.4438 0 36.5439 0H17.9992C17.0993 0 16.1295 0.672 15.8453 1.49415L14.1534 6.38138C13.8681 7.203 12.8994 7.875 11.9995 7.875H5.45431C2.45444 7.875 0 10.2375 0 13.125V36.75C0 39.6375 2.45444 42 5.45431 42H49.0888C52.0887 42 54.5431 39.6375 54.5431 36.75V13.125C54.5431 10.2375 52.0887 7.875 49.0888 7.875ZM27.2716 36.75C19.7408 36.75 13.6358 30.8737 13.6358 23.625C13.6358 16.3769 19.7408 10.5 27.2716 10.5C34.8012 10.5 40.9073 16.3769 40.9073 23.625C40.9073 30.8737 34.8012 36.75 27.2716 36.75ZM47.1798 16.7963C46.126 16.7963 45.2708 15.9742 45.2708 14.9588C45.2708 13.9445 46.126 13.1213 47.1798 13.1213C48.2346 13.1213 49.0888 13.9445 49.0888 14.9588C49.0888 15.9742 48.2341 16.7963 47.1798 16.7963Z" fill="black"/>
</svg>
